<mxfile host="app.diagrams.net" agent="Mozilla/5.0 (Windows NT 10.0; Win64; x64) AppleWebKit/537.36 (KHTML, like Gecko) Chrome/130.0.0.0 Safari/537.36" version="24.8.4">
  <diagram name="PÃ¡gina-1" id="quOFpwzGg_t2mJeXDZb7">
    <mxGraphModel dx="2049" dy="2777" grid="1" gridSize="10" guides="1" tooltips="1" connect="1" arrows="1" fold="1" page="1" pageScale="1" pageWidth="1169" pageHeight="1654" math="0" shadow="0">
      <root>
        <mxCell id="0" />
        <mxCell id="1" parent="0" />
        <mxCell id="o_IoWh3dbLJrlLXt5_01-1" value="" style="whiteSpace=wrap;html=1;aspect=fixed;fillColor=none;strokeWidth=2;" vertex="1" parent="1">
          <mxGeometry x="245" y="-70" width="855" height="855" as="geometry" />
        </mxCell>
        <mxCell id="o_IoWh3dbLJrlLXt5_01-2" style="edgeStyle=orthogonalEdgeStyle;rounded=0;orthogonalLoop=1;jettySize=auto;html=1;exitX=0.75;exitY=0.1;exitDx=0;exitDy=0;exitPerimeter=0;entryX=0;entryY=0.5;entryDx=0;entryDy=0;" edge="1" parent="1" source="o_IoWh3dbLJrlLXt5_01-6" target="o_IoWh3dbLJrlLXt5_01-10">
          <mxGeometry relative="1" as="geometry">
            <Array as="points">
              <mxPoint x="58" y="280" />
              <mxPoint x="320" y="280" />
              <mxPoint x="320" y="145" />
            </Array>
          </mxGeometry>
        </mxCell>
        <mxCell id="o_IoWh3dbLJrlLXt5_01-3" style="edgeStyle=orthogonalEdgeStyle;rounded=0;orthogonalLoop=1;jettySize=auto;html=1;exitX=0.5;exitY=0;exitDx=0;exitDy=0;exitPerimeter=0;entryX=0;entryY=0.5;entryDx=0;entryDy=0;" edge="1" parent="1" source="o_IoWh3dbLJrlLXt5_01-8" target="o_IoWh3dbLJrlLXt5_01-12">
          <mxGeometry relative="1" as="geometry" />
        </mxCell>
        <mxCell id="o_IoWh3dbLJrlLXt5_01-4" style="edgeStyle=orthogonalEdgeStyle;rounded=0;orthogonalLoop=1;jettySize=auto;html=1;exitX=1;exitY=0.3333333333333333;exitDx=0;exitDy=0;exitPerimeter=0;entryX=0;entryY=0.5;entryDx=0;entryDy=0;" edge="1" parent="1" source="o_IoWh3dbLJrlLXt5_01-6" target="o_IoWh3dbLJrlLXt5_01-9">
          <mxGeometry relative="1" as="geometry">
            <Array as="points">
              <mxPoint x="350" y="327" />
              <mxPoint x="350" y="265" />
            </Array>
          </mxGeometry>
        </mxCell>
        <mxCell id="o_IoWh3dbLJrlLXt5_01-5" style="edgeStyle=orthogonalEdgeStyle;rounded=0;orthogonalLoop=1;jettySize=auto;html=1;exitX=1;exitY=0.3333333333333333;exitDx=0;exitDy=0;exitPerimeter=0;entryX=0;entryY=0.5;entryDx=0;entryDy=0;" edge="1" parent="1" source="o_IoWh3dbLJrlLXt5_01-8" target="o_IoWh3dbLJrlLXt5_01-11">
          <mxGeometry relative="1" as="geometry">
            <Array as="points">
              <mxPoint x="150" y="505" />
            </Array>
          </mxGeometry>
        </mxCell>
        <mxCell id="o_IoWh3dbLJrlLXt5_01-6" value="ESTUDIANTE&lt;div&gt;&lt;br&gt;&lt;/div&gt;" style="shape=umlActor;html=1;verticalLabelPosition=bottom;verticalAlign=top;align=center;" vertex="1" parent="1">
          <mxGeometry x="20" y="300" width="50" height="80" as="geometry" />
        </mxCell>
        <mxCell id="o_IoWh3dbLJrlLXt5_01-7" style="edgeStyle=orthogonalEdgeStyle;rounded=0;orthogonalLoop=1;jettySize=auto;html=1;exitX=1;exitY=1;exitDx=0;exitDy=0;exitPerimeter=0;entryX=0;entryY=0.5;entryDx=0;entryDy=0;" edge="1" parent="1" source="o_IoWh3dbLJrlLXt5_01-8" target="o_IoWh3dbLJrlLXt5_01-13">
          <mxGeometry relative="1" as="geometry">
            <Array as="points">
              <mxPoint x="150" y="625" />
            </Array>
          </mxGeometry>
        </mxCell>
        <mxCell id="o_IoWh3dbLJrlLXt5_01-20" style="edgeStyle=orthogonalEdgeStyle;rounded=0;orthogonalLoop=1;jettySize=auto;html=1;exitX=1;exitY=1;exitDx=0;exitDy=0;exitPerimeter=0;entryX=0;entryY=0.5;entryDx=0;entryDy=0;" edge="1" parent="1" source="o_IoWh3dbLJrlLXt5_01-8" target="o_IoWh3dbLJrlLXt5_01-19">
          <mxGeometry relative="1" as="geometry">
            <Array as="points">
              <mxPoint x="200" y="630" />
              <mxPoint x="200" y="725" />
            </Array>
          </mxGeometry>
        </mxCell>
        <mxCell id="o_IoWh3dbLJrlLXt5_01-8" value="&lt;div&gt;PROFESOR&lt;/div&gt;" style="shape=umlActor;html=1;verticalLabelPosition=bottom;verticalAlign=top;align=center;" vertex="1" parent="1">
          <mxGeometry x="110" y="560" width="40" height="70" as="geometry" />
        </mxCell>
        <mxCell id="o_IoWh3dbLJrlLXt5_01-9" value="REALIZA EVALUACIONES" style="ellipse;whiteSpace=wrap;html=1;fillColor=#d5e8d4;strokeColor=#82b366;" vertex="1" parent="1">
          <mxGeometry x="460" y="230" width="140" height="70" as="geometry" />
        </mxCell>
        <mxCell id="o_IoWh3dbLJrlLXt5_01-10" value="VER MATERIAL DEL CURSO" style="ellipse;whiteSpace=wrap;html=1;fillColor=#d5e8d4;strokeColor=#82b366;" vertex="1" parent="1">
          <mxGeometry x="460" y="110" width="140" height="70" as="geometry" />
        </mxCell>
        <mxCell id="o_IoWh3dbLJrlLXt5_01-11" value="CALIFICAR EVALUACIONES" style="ellipse;whiteSpace=wrap;html=1;fillColor=#fff2cc;strokeColor=#d6b656;" vertex="1" parent="1">
          <mxGeometry x="690" y="470" width="140" height="70" as="geometry" />
        </mxCell>
        <mxCell id="o_IoWh3dbLJrlLXt5_01-12" value="CREAR CURSO" style="ellipse;whiteSpace=wrap;html=1;fillColor=#fff2cc;strokeColor=#d6b656;" vertex="1" parent="1">
          <mxGeometry x="690" y="360" width="140" height="70" as="geometry" />
        </mxCell>
        <mxCell id="o_IoWh3dbLJrlLXt5_01-13" value="CALIFICAR EVALUACIONES" style="ellipse;whiteSpace=wrap;html=1;fillColor=#fff2cc;strokeColor=#d6b656;" vertex="1" parent="1">
          <mxGeometry x="690" y="590" width="140" height="70" as="geometry" />
        </mxCell>
        <mxCell id="o_IoWh3dbLJrlLXt5_01-19" value="ACTUALIZAR CONTENIDO DEL CURSO" style="ellipse;whiteSpace=wrap;html=1;fillColor=#fff2cc;strokeColor=#d6b656;" vertex="1" parent="1">
          <mxGeometry x="690" y="690" width="140" height="70" as="geometry" />
        </mxCell>
        <mxCell id="o_IoWh3dbLJrlLXt5_01-21" value="&lt;div&gt;SISTEMA&lt;/div&gt;" style="shape=umlActor;html=1;verticalLabelPosition=bottom;verticalAlign=top;align=center;" vertex="1" parent="1">
          <mxGeometry x="1260" y="310" width="50" height="80" as="geometry" />
        </mxCell>
        <mxCell id="o_IoWh3dbLJrlLXt5_01-24" style="edgeStyle=orthogonalEdgeStyle;rounded=0;orthogonalLoop=1;jettySize=auto;html=1;exitX=0.5;exitY=0;exitDx=0;exitDy=0;exitPerimeter=0;entryX=0;entryY=0.5;entryDx=0;entryDy=0;" edge="1" parent="1" target="o_IoWh3dbLJrlLXt5_01-25" source="o_IoWh3dbLJrlLXt5_01-6">
          <mxGeometry relative="1" as="geometry">
            <Array as="points">
              <mxPoint x="45" y="198" />
              <mxPoint x="280" y="198" />
              <mxPoint x="280" y="15" />
            </Array>
            <mxPoint x="50" y="168" as="sourcePoint" />
          </mxGeometry>
        </mxCell>
        <mxCell id="o_IoWh3dbLJrlLXt5_01-25" value="INSCRIBIRSE EN CURSO" style="ellipse;whiteSpace=wrap;html=1;fillColor=#d5e8d4;strokeColor=#82b366;" vertex="1" parent="1">
          <mxGeometry x="460" y="-20" width="140" height="70" as="geometry" />
        </mxCell>
      </root>
    </mxGraphModel>
  </diagram>
</mxfile>
